<?xml version="1.0" standalone="no"?>
<!DOCTYPE svg PUBLIC "-//W3C//DTD SVG 20010904//EN"
 "http://www.w3.org/TR/2001/REC-SVG-20010904/DTD/svg10.dtd">
<svg version="1.0" xmlns="http://www.w3.org/2000/svg"
 width="1024.000000pt" height="1024.000000pt" viewBox="0 0 1024.000000 1024.000000"
 preserveAspectRatio="xMidYMid meet">

<g transform="translate(0.000000,1024.000000) scale(0.100000,-0.100000)"
fill="#000000" stroke="none">
<path d="M4788 8944 c-180 -43 -343 -203 -373 -367 l-7 -37 -132 0 c-235 -1
-318 -21 -399 -99 -21 -20 -51 -58 -65 -86 -25 -47 -27 -59 -27 -185 0 -153
11 -188 80 -248 78 -69 1 -64 1024 -63 l926 1 52 26 c128 62 175 191 143 388
-21 130 -104 225 -222 254 -26 7 -121 12 -217 12 l-170 0 -11 55 c-26 127
-137 267 -253 320 -99 46 -235 57 -349 29z m241 -224 c47 -24 103 -84 131
-138 11 -24 27 -79 35 -122 25 -142 29 -144 220 -135 78 4 177 4 219 0 72 -6
78 -9 121 -50 41 -41 45 -48 45 -94 0 -38 -6 -56 -24 -78 l-24 -28 -164 3
c-119 2 -185 8 -244 22 -75 18 -118 20 -495 20 -325 -1 -431 -4 -494 -16 -161
-30 -264 -44 -282 -37 -10 3 -30 15 -45 25 -35 24 -48 106 -25 160 26 63 48
68 292 68 280 0 277 -1 314 151 10 42 30 97 45 123 31 54 117 122 178 142 54
17 148 10 197 -16z"/>
<path d="M4835 8558 c-76 -60 -104 -142 -70 -208 47 -91 183 -104 262 -25 28
28 33 40 33 81 0 61 -33 130 -74 155 -43 26 -115 25 -151 -3z"/>
<path d="M2655 8683 c-68 -10 -244 -67 -319 -105 -45 -22 -127 -74 -183 -114
-191 -139 -334 -361 -392 -610 l-21 -91 0 -2711 c0 -2970 -4 -2762 60 -2954
112 -336 385 -585 745 -679 l90 -24 2125 -3 c1461 -2 2147 1 2195 8 168 25
309 76 464 167 214 124 399 371 473 630 22 78 22 80 28 1188 3 611 3 1121 0
1134 -11 46 -27 46 -191 1 -143 -40 -163 -43 -281 -44 -103 -1 -129 -4 -135
-16 -4 -8 -10 -440 -13 -960 -6 -874 -8 -949 -24 -1000 -59 -179 -158 -296
-316 -372 -52 -26 -119 -52 -149 -59 -42 -9 -498 -12 -1990 -14 -1667 -2
-1946 0 -2006 13 -222 46 -367 191 -438 436 -21 71 -21 77 -24 2546 -4 2798
-11 2557 78 2738 78 160 181 253 328 298 77 24 227 42 396 48 88 4 212 9 276
12 l117 6 7 55 c7 58 41 167 70 224 25 48 160 174 223 206 28 14 52 29 52 33
0 4 -21 10 -46 14 -50 6 -1149 6 -1199 -1z"/>
<path d="M5893 8683 c-34 -6 -28 -15 29 -42 60 -28 180 -138 213 -195 39 -68
65 -163 65 -238 l0 -68 215 0 216 0 17 31 c40 74 64 98 167 177 172 130 309
190 440 192 l40 1 -55 26 c-93 43 -248 93 -338 108 -67 12 -177 15 -536 14
-248 -1 -461 -4 -473 -6z"/>
<path d="M7135 8356 c-57 -26 -114 -70 -311 -240 -136 -117 -324 -299 -984
-952 -179 -177 -385 -374 -457 -438 l-133 -117 -54 -172 c-99 -313 -156 -517
-156 -563 0 -26 6 -34 29 -44 17 -7 44 -9 63 -5 18 3 74 15 123 25 50 11 177
35 283 55 265 49 299 64 425 186 56 55 106 99 112 99 5 0 29 -11 52 -24 24
-14 87 -41 141 -61 131 -48 166 -69 158 -98 -50 -201 -24 -476 63 -664 131
-280 401 -485 736 -559 96 -21 310 -23 400 -4 402 85 684 349 779 729 22 90
26 125 26 258 0 218 -32 353 -116 484 -26 40 -28 51 -26 124 3 102 -15 357
-29 407 -22 83 -129 166 -352 273 -164 79 -418 151 -674 190 -24 4 -45 11 -48
15 -3 5 32 41 77 82 130 115 467 457 484 491 22 42 29 136 14 182 -30 91 -258
301 -375 344 -79 30 -183 29 -250 -3z m189 -201 c75 -36 206 -169 206 -209 0
-13 -17 -43 -38 -67 l-39 -43 -29 23 c-67 53 -244 234 -244 251 0 22 56 60 88
60 13 0 38 -7 56 -15z m-276 -232 c31 -21 109 -88 172 -150 l115 -112 -48 -46
-49 -46 -46 43 c-26 23 -99 95 -162 159 l-115 116 29 37 c16 20 34 36 39 36 5
0 34 -17 65 -37z m-53 -419 l24 -31 -87 -85 c-111 -107 -164 -150 -227 -178
-192 -86 -231 -109 -299 -178 -64 -65 -69 -74 -74 -122 -5 -59 3 -53 -157
-110 -102 -37 -186 -84 -230 -129 -40 -43 -46 -126 -16 -232 25 -89 26 -99 6
-99 -8 0 -31 -14 -50 -32 -41 -35 -38 -37 -81 44 -30 59 -137 174 -193 208
-22 14 -41 28 -41 32 0 3 186 186 413 406 226 220 491 478 587 574 l175 173
113 -105 c62 -58 124 -119 137 -136z m195 -476 c329 -63 562 -128 690 -193 75
-38 154 -104 177 -148 13 -27 35 -147 26 -147 -1 0 -24 16 -50 36 -27 20 -75
49 -108 64 -33 15 -80 36 -105 47 -86 39 -362 92 -530 102 -85 6 -236 24 -335
41 -211 36 -240 43 -240 58 0 11 179 164 205 175 22 9 93 -1 270 -35z m-655
-447 c66 -10 137 -25 158 -34 35 -15 37 -18 26 -39 -6 -13 -33 -45 -58 -73
-26 -27 -66 -78 -90 -112 l-43 -61 -31 18 c-18 10 -70 33 -117 50 -47 17 -104
42 -128 56 -86 51 -132 157 -80 185 63 34 184 37 363 10z m1034 -27 c95 -23
274 -113 358 -181 82 -65 132 -127 185 -229 120 -229 114 -575 -14 -793 -48
-80 -171 -201 -257 -251 -213 -126 -442 -149 -694 -69 -340 108 -561 457 -519
822 22 198 96 341 254 493 127 122 220 177 348 209 78 19 259 19 339 -1z
m-2039 -218 c19 -23 59 -66 88 -97 28 -31 52 -61 52 -67 0 -17 -24 -26 -162
-61 -119 -30 -128 -31 -157 -17 -16 9 -32 20 -36 26 -8 13 7 70 57 212 l41
118 41 -37 c22 -20 57 -55 76 -77z"/>
<path d="M7805 6206 c-40 -18 -183 -170 -340 -361 -27 -33 -64 -77 -83 -97
l-35 -37 -111 111 c-128 128 -173 155 -235 138 -38 -10 -92 -47 -118 -80 -35
-45 -15 -87 82 -165 39 -31 129 -115 202 -186 119 -116 135 -129 167 -129 43
0 85 34 164 135 31 38 88 106 127 150 39 44 93 107 120 139 28 33 82 84 120
115 107 85 125 108 125 158 0 62 -48 113 -110 119 -26 3 -58 -2 -75 -10z"/>
<path d="M2770 7880 l-40 -40 0 -328 0 -328 29 -46 c16 -26 38 -51 48 -56 22
-12 648 -20 680 -9 22 8 64 58 76 89 3 10 7 164 7 342 1 278 -1 329 -14 355
-31 60 -41 61 -411 61 l-335 0 -40 -40z m401 -170 l199 0 -2 -217 -3 -218
-207 1 c-114 0 -210 2 -212 5 -7 7 -16 426 -9 433 4 4 13 4 21 1 7 -3 103 -5
213 -5z"/>
<path d="M7835 7638 c-36 -20 -71 -53 -181 -168 l-107 -112 109 -28 c60 -16
138 -40 173 -54 36 -14 69 -26 74 -26 5 0 7 79 5 186 -3 170 -5 187 -22 200
-23 17 -25 17 -51 2z"/>
<path d="M4001 7527 c-88 -22 -92 -144 -6 -189 13 -8 284 -12 820 -15 l801 -4
53 56 c44 46 52 60 49 87 -2 19 -12 38 -28 49 -23 17 -75 18 -842 21 -450 2
-831 0 -847 -5z"/>
<path d="M2815 6882 c-17 -10 -43 -34 -58 -51 l-27 -33 0 -314 c0 -213 4 -322
11 -337 6 -12 25 -37 42 -54 l31 -33 333 0 333 0 36 33 c22 20 38 46 44 72 5
22 10 171 11 332 2 420 32 391 -413 399 -298 5 -314 5 -343 -14z m555 -409 l0
-216 -212 7 c-117 4 -215 9 -217 12 -2 2 -6 96 -9 209 l-5 205 222 0 221 0 0
-217z"/>
<path d="M3973 6756 c-27 -23 -33 -35 -33 -68 0 -32 7 -47 33 -72 l32 -33 460
-6 c329 -4 464 -2 473 6 22 18 72 110 72 133 0 11 -8 28 -18 38 -17 14 -71 17
-503 23 l-484 6 -32 -27z"/>
<path d="M4145 6201 c-168 -6 -182 -8 -213 -29 -63 -45 -62 -41 -65 -489 -2
-392 -1 -409 18 -441 11 -18 34 -42 52 -53 31 -19 48 -20 420 -17 388 3 388 3
421 26 63 45 62 37 62 516 l0 435 -24 28 -24 28 -234 1 c-128 0 -314 -2 -413
-5z m248 -171 l258 0 -3 -57 -3 -58 -53 3 c-53 4 -54 3 -105 -50 -29 -29 -67
-70 -85 -92 -38 -43 -30 -46 -122 40 -66 62 -86 64 -144 13 -70 -62 -64 -80
65 -219 105 -112 141 -137 183 -126 25 6 204 193 249 261 l27 40 0 -192 c0
-105 -3 -198 -6 -207 -5 -14 -42 -16 -305 -16 l-298 0 3 333 c2 182 4 334 5
336 0 2 18 1 39 -3 20 -3 153 -6 295 -6z"/>
<path d="M2827 5856 c-96 -35 -97 -38 -97 -416 0 -454 -36 -418 421 -421 368
-2 360 -4 399 75 19 40 20 60 20 360 0 350 -2 361 -62 392 -27 14 -78 17 -338
20 -236 2 -313 0 -343 -10z m533 -350 c0 -84 3 -181 6 -215 l7 -61 -222 0
-221 0 0 215 0 215 215 0 215 0 0 -154z"/>
<path d="M2795 4749 c-17 -12 -39 -33 -50 -48 -19 -25 -20 -39 -17 -361 4
-364 5 -369 62 -410 30 -21 35 -21 361 -17 369 6 361 4 400 77 17 32 19 63 19
363 l0 328 -39 42 -40 42 -333 3 c-327 2 -334 2 -363 -19z m462 -189 l114 0
-2 -219 -2 -219 -52 -4 c-29 -3 -128 -2 -219 0 l-166 5 0 225 0 225 107 -6
c58 -4 157 -7 220 -7z"/>
<path d="M3967 4672 c-37 -39 -37 -91 1 -133 l28 -31 1239 -1 1240 -2 33 30
c21 20 35 43 39 67 5 32 1 41 -25 68 l-30 30 -1249 0 -1249 0 -27 -28z"/>
<path d="M3973 4105 c-20 -20 -33 -43 -33 -58 0 -30 43 -85 77 -98 13 -5 559
-9 1248 -10 1184 -1 1226 -1 1247 17 11 11 27 34 35 52 16 39 4 74 -37 103
-23 16 -106 17 -1264 22 l-1240 5 -33 -33z"/>
<path d="M2792 3582 c-12 -10 -32 -31 -42 -47 -19 -28 -20 -49 -20 -358 0
-359 0 -360 60 -411 l32 -26 328 0 329 0 36 36 c20 20 40 47 46 61 5 13 9 167
9 341 0 449 34 416 -430 420 -299 2 -327 1 -348 -16z m566 -197 c9 -3 12 -49
12 -182 0 -98 -3 -196 -7 -217 l-6 -39 -206 7 c-113 4 -206 8 -207 9 -1 1 -4
99 -8 217 l-6 215 207 -3 c115 -1 214 -5 221 -7z"/>
<path d="M3992 3524 c-84 -35 -80 -145 6 -187 22 -11 268 -14 1250 -15 1348
-2 1264 -6 1298 59 20 40 12 88 -22 120 l-26 24 -1106 2 c-609 2 -1166 4
-1239 6 -89 2 -142 0 -161 -9z"/>
<path d="M3963 2935 c-18 -18 -33 -43 -33 -54 0 -34 26 -77 62 -103 l33 -23
1220 0 1220 0 34 24 c45 32 66 83 49 118 -7 14 -24 34 -38 44 -23 16 -103 18
-1270 22 l-1245 4 -32 -32z"/>
</g>
</svg>
